<?xml version="1.0" encoding="UTF-8"?>
<svg version="1.1" xmlns="http://www.w3.org/2000/svg" width="726" height="142">
<path d="M0 0 C18.34376472 -1.45486746 18.34376472 -1.45486746 23.82421875 1.546875 C25.87878545 3.90725771 27.40419846 6.30731418 29 9 C30.29847542 10.78841775 31.64008426 12.53677481 32.99536133 14.2824707 C33.90408306 15.45491632 34.79893994 16.6382611 35.6784668 17.83276367 C36.73872883 19.25797481 37.86426924 20.63416765 39 22 C39.66 22 40.32 22 41 22 C42.80866149 20.05936321 44.50262898 18.10616004 46.1875 16.0625 C46.6923291 15.47509033 47.1971582 14.88768066 47.71728516 14.2824707 C49.96686863 11.63460624 51.89007877 9.20425869 53.54296875 6.1328125 C55.16233755 3.1600123 56.07067846 1.76561846 59 0 C65.92924135 -1.09112819 73.03790281 -0.5473494 80 0 C78.18562043 3.81188513 75.81290888 6.96534544 73.1875 10.25 C72.7119165 10.85191162 72.23633301 11.45382324 71.74633789 12.07397461 C69.01847084 15.51365066 66.2510098 18.91784257 63.453125 22.30078125 C62.86764893 23.01137695 62.28217285 23.72197266 61.67895508 24.45410156 C60.5387519 25.83455784 59.39294923 27.21041276 58.2409668 28.58105469 C55.48478168 31.91711031 53.29965819 34.79427381 52 39 C52.66644531 39.77601562 53.33289063 40.55203125 54.01953125 41.3515625 C60.47918753 48.90892268 66.73382235 56.59905147 72.81347656 64.46533203 C73.87906522 65.84358106 74.9508596 67.21702686 76.0234375 68.58984375 C80 73.75190728 80 73.75190728 80 76 C62.5326601 78.21351891 62.5326601 78.21351891 57.03857422 74.77099609 C53.71541339 71.57873865 51.35472724 67.77290658 49.06396484 63.80029297 C47.55535347 61.24763113 45.77185561 58.95050153 43.9375 56.625 C43.41027344 55.91601562 42.88304687 55.20703125 42.33984375 54.4765625 C41.89769531 53.98929688 41.45554688 53.50203125 41 53 C40.34 53 39.68 53 39 53 C37.57013789 54.51307429 37.57013789 54.51307429 36.13671875 56.5078125 C35.30043945 57.61769531 35.30043945 57.61769531 34.44726562 58.75 C33.86654297 59.53375 33.28582031 60.3175 32.6875 61.125 C30.98793816 63.39621514 29.28597937 65.66375944 27.55688477 67.91259766 C26.0070452 69.92462482 26.0070452 69.92462482 24.84741211 71.88037109 C23.7578125 73.53125 23.7578125 73.53125 21 76 C17.36353538 76.71093317 13.87424597 76.56812706 10.1875 76.375 C9.20845703 76.34792969 8.22941406 76.32085937 7.22070312 76.29296875 C4.81153379 76.22245648 2.40691181 76.12398568 0 76 C1.83591347 72.13256427 4.26988746 68.95015198 6.9375 65.625 C7.92719406 64.37899419 8.91677397 63.13289771 9.90625 61.88671875 C10.67001953 60.92838135 10.67001953 60.92838135 11.44921875 59.95068359 C13.96063216 56.79164814 16.44793875 53.61376345 18.9375 50.4375 C21.9400287 46.61020762 24.95511316 42.79374532 28 39 C26.44381016 33.96413102 23.39257613 30.52466282 20.0625 26.5625 C18.88975512 25.14264513 17.71789698 23.72205742 16.546875 22.30078125 C15.95583984 21.58615723 15.36480469 20.8715332 14.75585938 20.13525391 C12.07049303 16.86965128 9.43357684 13.56730732 6.8125 10.25 C6.35560791 9.67838135 5.89871582 9.1067627 5.42797852 8.51782227 C3.26798837 5.77931469 1.49608326 3.14316674 0 0 Z " fill="#5F249F" transform="translate(90,33)"/>
<path d="M0 0 C4.7841214 -0.09254614 9.56505706 -0.17195514 14.34936523 -0.21972656 C15.97186893 -0.23966813 17.59430242 -0.26683174 19.21655273 -0.30175781 C32.08015795 -0.57148496 42.63718806 0.3352452 52.9296875 8.94921875 C58.70763986 14.67266213 62.71827493 21.21529095 65 29 C65 30.32 65 31.64 65 33 C59.39 33 53.78 33 48 33 C47.484375 31.80375 46.96875 30.6075 46.4375 29.375 C43.81485608 24.12971215 40.12356622 20.52701374 34.85058594 17.94921875 C31.31808743 16.77292942 28.23346108 16.67490345 24.51171875 16.5859375 C23.80852005 16.56657135 23.10532135 16.5472052 22.3808136 16.5272522 C20.14982981 16.46779817 17.91879346 16.42120951 15.6875 16.375 C14.16859814 16.33678863 12.64971722 16.29773508 11.13085938 16.2578125 C7.4206861 16.16054963 3.71071737 16.08071394 0 16 C0 10.72 0 5.44 0 0 Z " fill="#5F249F" transform="translate(33,33)"/>
<path d="M0 0 C0.74900574 0.00141495 1.49801147 0.0028299 2.26971436 0.00428772 C4.65380912 0.00986966 7.03780878 0.0224188 9.421875 0.03515625 C11.04166531 0.04017359 12.66145709 0.04473609 14.28125 0.04882812 C18.24485748 0.05898081 22.20826021 0.0785596 26.171875 0.09765625 C26.171875 5.37765625 26.171875 10.65765625 26.171875 16.09765625 C22.84609375 16.13632812 22.84609375 16.13632812 19.453125 16.17578125 C17.28177746 16.21430516 15.11065917 16.25943143 12.93945312 16.30517578 C11.44217053 16.33322565 9.94474425 16.35451899 8.44726562 16.36865234 C-4.80817131 16.33355408 -4.80817131 16.33355408 -15.8515625 23.09765625 C-16.29757813 23.75765625 -16.74359375 24.41765625 -17.203125 25.09765625 C-17.66460937 25.75765625 -18.12609375 26.41765625 -18.6015625 27.09765625 C-19.78875277 29.03345694 -20.81257145 31.06654915 -21.828125 33.09765625 C-27.438125 33.09765625 -33.048125 33.09765625 -38.828125 33.09765625 C-36.83768568 21.69786743 -31.9916815 13.36093606 -22.828125 6.09765625 C-15.19709205 1.76066865 -8.72046901 -0.06224742 0 0 Z " fill="#5F249F" transform="translate(200.828125,32.90234375)"/>
<path d="M0 0 C5.61 0 11.22 0 17 0 C15.31795585 10.42867373 10.46138857 19.4578613 2 26 C-6.17246272 31.02920783 -14.20388431 33.27254932 -23.78125 33.1953125 C-24.48020386 33.1924826 -25.17915771 33.18965271 -25.89929199 33.18673706 C-28.09971316 33.1756727 -30.29970493 33.15059606 -32.5 33.125 C-34.00520239 33.11495235 -35.51041126 33.10582965 -37.015625 33.09765625 C-40.67737595 33.07749242 -44.33821573 33.038321 -48 33 C-48 27.72 -48 22.44 -48 17 C-45.95039062 16.97421875 -43.90078125 16.9484375 -41.7890625 16.921875 C-39.76999099 16.88010111 -37.75091997 16.83818448 -35.73193359 16.79248047 C-34.34533524 16.76452356 -32.958585 16.74318529 -31.57177734 16.72900391 C-23.3024378 16.63944427 -15.2234919 16.52113994 -8 12 C-4.4856302 8.33723583 -2.26592573 4.53185147 0 0 Z " fill="#5F249F" transform="translate(81,76)"/>
<path d="M0 0 C11.84963743 -1.31958842 11.84963743 -1.31958842 17 0 C19.6818378 2.57299698 20.92081411 4.95526304 22.5234375 8.2890625 C25.04354746 12.91593105 28.89267129 14.05390265 33.69750977 15.5168457 C36.72273065 16.15165772 39.64476677 16.22154986 42.734375 16.31640625 C44.02988281 16.35830078 45.32539063 16.40019531 46.66015625 16.44335938 C48.02343476 16.48316671 49.38671606 16.52287906 50.75 16.5625 C52.12891875 16.60572274 53.50782526 16.64933821 54.88671875 16.69335938 C58.25769306 16.79943899 61.62883323 16.90022365 65 17 C65 22.28 65 27.56 65 33 C60.78589641 33.06950568 56.57384291 33.12903672 52.35961914 33.16479492 C50.93116455 33.1797265 49.50275452 33.20007938 48.07446289 33.22631836 C34.15551488 33.47530691 21.72400871 31.90772719 10.99609375 22.18359375 C5.05872519 15.8358671 1.17565178 8.62978438 0 0 Z " fill="#5F249F" transform="translate(162,76)"/>
<path d="M0 0 C9 0 9 0 11.63671875 2.34375 C12.31347656 3.3853125 12.99023438 4.426875 13.6875 5.5 C14.37199219 6.5209375 15.05648438 7.541875 15.76171875 8.59375 C16.86966797 10.27984375 16.86966797 10.27984375 18 12 C19.98 14.64 21.96 17.28 24 20 C24.33 13.4 24.66 6.8 25 0 C27.97 0 30.94 0 34 0 C34 12.87 34 25.74 34 39 C26 39 26 39 24.16137695 37.82592773 C23.77425537 37.28395752 23.38713379 36.7419873 22.98828125 36.18359375 C22.54033203 35.58353516 22.09238281 34.98347656 21.63085938 34.36523438 C21.19580078 33.72908203 20.76074219 33.09292969 20.3125 32.4375 C19.86583984 31.82841797 19.41917969 31.21933594 18.95898438 30.59179688 C17.61261077 28.74517415 16.3072582 26.87452156 15 25 C13.35 22.69 11.7 20.38 10 18 C9.67 24.93 9.34 31.86 9 39 C6.03 39 3.06 39 0 39 C0 26.13 0 13.26 0 0 Z " fill="#000000" transform="translate(429,51)"/>
<path d="M0 0 C4.89872999 2.85759249 7.79346527 7.1303958 9.5625 12.4375 C10.2681074 19.59767997 9.90299791 25.52474742 5.5625 31.4375 C1.04517549 36.5406447 -4.1281814 38.06286016 -10.75 38.8125 C-16.95777462 38.18120089 -23.17420754 36.35555069 -27.4375 31.5625 C-31.36665482 25.42319559 -32.48361635 19.49689906 -31.0078125 12.359375 C-29.31474884 6.88304562 -26.23607239 3.51250353 -21.4375 0.4375 C-14.8571489 -2.73847111 -6.72601323 -2.97939369 0 0 Z M-18.4375 9.4375 C-20.91645778 12.31628968 -21.39463161 14.10067695 -21.875 17.875 C-21.35356726 22.12095227 -20.16832959 24.17567577 -17.4375 27.4375 C-14.232098 29.78812814 -11.33867562 29.83557915 -7.4375 29.4375 C-4.37192083 28.36811192 -2.93269814 27.33314718 -1.35546875 24.48046875 C0.21075539 20.56824079 1.06587274 17.58414037 -0.5 13.5625 C-2.88502543 9.71568479 -4.56483049 8.14607765 -8.75 6.5625 C-12.65491088 6.38087624 -15.04800008 7.55444449 -18.4375 9.4375 Z " fill="#000000" transform="translate(592.4375,52.5625)"/>
<path d="M0 0 C4.60512606 3.76596975 7.33316261 7.73607337 8.265625 13.66796875 C8.49913334 20.43192712 7.98334096 25.09999037 3.7578125 30.4375 C-1.25074226 35.44605476 -5.69547528 37.11507162 -12.6796875 37.75 C-18.42431187 37.24608558 -22.62848845 35.80017919 -27.0546875 32.0625 C-31.77926526 26.39300669 -33.42325282 21.84986135 -33.2421875 14.4375 C-32.1124699 8.71830465 -29.36842268 4.46995711 -25.2421875 0.4375 C-17.86281354 -4.08048406 -7.53633657 -4.54072161 0 0 Z M-20.4921875 9 C-23.07988674 12.60429537 -23.5698478 16.04075598 -23.2421875 20.4375 C-21.63638705 23.708575 -20.29588968 25.66478507 -17.3671875 27.8125 C-13.39950248 28.97946618 -10.37680558 28.91245641 -6.5546875 27.3125 C-3.59570234 24.91332284 -2.48874263 23.03865926 -1.2421875 19.4375 C-1.31210951 15.45194548 -1.87406204 13.07464021 -3.8671875 9.625 C-9.55855988 4.38294649 -14.52850631 4.85855473 -20.4921875 9 Z " fill="#000000" transform="translate(507.2421875,53.5625)"/>
<path d="M0 0 C2.18359375 1.1015625 2.18359375 1.1015625 5.37109375 3.1015625 C5.37109375 7.00995116 3.86541499 8.21750357 1.37109375 11.1015625 C0.57445312 10.85019531 -0.2221875 10.59882812 -1.04296875 10.33984375 C-7.60954033 8.32904358 -7.60954033 8.32904358 -14.25390625 9.1640625 C-17.27407022 11.6078986 -17.27407022 11.6078986 -18.62890625 15.1015625 C-19.21186737 20.92634335 -19.21186737 20.92634335 -16.75390625 26.0390625 C-13.92540649 28.78437109 -12.45798938 29.24064001 -8.62890625 29.2265625 C-7.92765625 29.22914062 -7.22640625 29.23171875 -6.50390625 29.234375 C-4.5373685 29.21533486 -4.5373685 29.21533486 -2.62890625 28.1015625 C-1.97677333 26.07692995 -1.97677333 26.07692995 -1.62890625 24.1015625 C-4.26890625 24.1015625 -6.90890625 24.1015625 -9.62890625 24.1015625 C-9.62890625 21.1315625 -9.62890625 18.1615625 -9.62890625 15.1015625 C-4.01890625 15.1015625 1.59109375 15.1015625 7.37109375 15.1015625 C8.5880452 31.37828818 8.5880452 31.37828818 5.765625 35.375 C3.63992812 36.6910975 1.78469649 37.46878276 -0.62890625 38.1015625 C-1.47453125 38.3696875 -2.32015625 38.6378125 -3.19140625 38.9140625 C-11.51300868 39.55418576 -16.99226593 38.50311743 -23.94140625 33.9140625 C-28.08911495 29.57343711 -29.72189095 25.08263706 -30.00390625 19.1015625 C-29.74909656 13.90344484 -28.58624442 9.23855972 -25.01171875 5.3359375 C-17.73453149 -1.09797055 -9.55892731 -3.26679536 0 0 Z " fill="#000000" transform="translate(640.62890625,51.8984375)"/>
<path d="M0 0 C3.3 0 6.6 0 10 0 C10 4.95 10 9.9 10 15 C14.62 15 19.24 15 24 15 C24 10.05 24 5.1 24 0 C26.97 0 29.94 0 33 0 C33 12.87 33 25.74 33 39 C30.03 39 27.06 39 24 39 C24 34.05 24 29.1 24 24 C19.38 24 14.76 24 10 24 C10 28.95 10 33.9 10 39 C6.7 39 3.4 39 0 39 C0 26.13 0 13.26 0 0 Z " fill="#000000" transform="translate(382,51)"/>
<path d="M0 0 C9.57 0 19.14 0 29 0 C29 2.97 29 5.94 29 9 C22.4 9 15.8 9 9 9 C9 10.98 9 12.96 9 15 C14.94 15 20.88 15 27 15 C27 17.97 27 20.94 27 24 C21.06 24 15.12 24 9 24 C9 26.31 9 28.62 9 31 C15.6 31 22.2 31 29 31 C29 33.64 29 36.28 29 39 C19.43 39 9.86 39 0 39 C0 26.13 0 13.26 0 0 Z " fill="#000000" transform="translate(297,51)"/>
<path d="M0 0 C0.78375 0.53625 1.5675 1.0725 2.375 1.625 C3.365 2.285 4.355 2.945 5.375 3.625 C4.00345496 6.57909701 2.38636276 9.06508376 0.375 11.625 C-0.3984375 11.191875 -0.3984375 11.191875 -1.1875 10.75 C-6.04479359 8.50817219 -9.15765383 7.19201261 -14.4375 8.75 C-17.55911902 10.3401085 -17.55911902 10.3401085 -19.0625 12.375 C-20.15901876 16.76107505 -20.23881551 20.30968104 -18.3125 24.4375 C-16.64107792 26.84538518 -16.64107792 26.84538518 -13.625 28.625 C-9.65283084 28.99279344 -7.39017098 29.08766152 -3.9375 27 C-3.174375 26.54625 -2.41125 26.0925 -1.625 25.625 C1.87983143 26.5527495 3.41346676 28.68270013 5.375 31.625 C0.46087846 36.07110996 -3.22998799 38.31064704 -10 38.9375 C-16.53356937 38.37426126 -21.87043243 36.24372278 -26.625 31.625 C-30.43967972 26.17545755 -31.25098925 21.23400187 -30.625 14.625 C-29.29720348 7.65406825 -25.35025067 3.60728121 -19.625 -0.375 C-13.43407751 -2.43864083 -6.07106666 -2.30281839 0 0 Z " fill="#000000" transform="translate(366.625,52.375)"/>
<path d="M0 0 C3.92269416 -0.84366768 7.11759197 -1.12452448 11 0 C14.45289652 3.97915447 16.73107011 8.26710327 19 13 C21.51886494 9.99734471 23.41583809 7.22748977 25.0625 3.6875 C26.296875 1.60546875 26.296875 1.60546875 28 0 C31.7521127 -0.69424684 35.22868579 -0.47554225 39 0 C37.92623919 3.42387881 36.34069505 6.0203415 34.21484375 8.86328125 C26.71173861 18.96992287 23.10126835 26.31405714 24 39 C21.03 39 18.06 39 15 39 C15.09023438 38.17242187 15.18046875 37.34484375 15.2734375 36.4921875 C15.64409605 23.29104084 8.70194242 14.45926496 1.26928711 4.00854492 C0 2 0 2 0 0 Z " fill="#000000" transform="translate(654,51)"/>
<path d="M0 0 C10.56 0 21.12 0 32 0 C32 2.97 32 5.94 32 9 C28.04 9 24.08 9 20 9 C20 18.9 20 28.8 20 39 C17.03 39 14.06 39 11 39 C11 29.1 11 19.2 11 9 C7.37 9 3.74 9 0 9 C0 6.03 0 3.06 0 0 Z " fill="#000000" transform="translate(255,51)"/>
<path d="M0 0 C2.97 0 5.94 0 9 0 C9 10.23 9 20.46 9 31 C15.27 31 21.54 31 28 31 C28 33.64 28 36.28 28 39 C18.76 39 9.52 39 0 39 C0 26.13 0 13.26 0 0 Z " fill="#000000" transform="translate(526,51)"/>
</svg>
